# xmcd
#
# Track frame offsets: 
#        150
#        14088
#        30273
#        46102
#        59354
#        74859
#        94246
#        109728
#        128643
#        142419
#        158925
#        172277
#        189388
#        206982
#        217795
#        234753
#        247172
#        264231
#        280465
#        294065
#
# Disc length: 4153 seconds
#
# Revision: 6
# Processed by: cddbd v1.5.2PL0 Copyright (c) Steve Scherf et al.
# Submitted via: ExactAudioCopy v0.99pb1
#
DISCID=33103714
DTITLE=Sexteto Mayor - Tango
DYEAR=1997
DGENRE=Tango
TTITLE0=A Orlando Goñi ( A Gobbi)
TTITLE1=Mal De Amores (P Laurenz)
TTITLE2=Contrabajeando (A Piazzolla-A Troilo)
TTITLE3=El Firulete (M Mores)
TTITLE4=Taconeando (J Staffolani-P Maffia)
TTITLE5=Halcon Negro (F Canaro)
TTITLE6=La Casita De Mis Viejos (E Cadicamo-J C Cobian)
TTITLE7=Verano Porteño(A Piazzolla)
TTITLE8=Un Placer (J A Caruso-V Romero)
TTITLE9=Canaro En Paris (J Scarpino-J Caldarela)
TTITLE10=Tema Otoñal (J de Caro-P Laurenz)
TTITLE11=Orgullo Criollo (J de Caro-P Laurenz)
TTITLE12=Kicho (A Piazzolla)
TTITLE13=Taquito Militar (M Mores)
TTITLE14=La Cachila (E Arolas-H Polito)
TTITLE15=Tecleando (C Figari)
TTITLE16=Nostalgias (C Cobian-E Cadicamo)
TTITLE17=Invierno Porteño (A Piazzolla)
TTITLE18=La Flor De La Canela (C Grande)
TTITLE19=La Cumparsita (G M Rodriguez-P Contursi-E P Maroni)
EXTD=YEAR: 1997
EXTT0=
EXTT1=
EXTT2=
EXTT3=
EXTT4=
EXTT5=
EXTT6=
EXTT7=
EXTT8=
EXTT9=
EXTT10=
EXTT11=
EXTT12=
EXTT13=
EXTT14=
EXTT15=
EXTT16=
EXTT17=
EXTT18=
EXTT19=
PLAYORDER=
